<svg xmlns="http://www.w3.org/2000/svg" version="1.1" xmlns:xlink="http://www.w3.org/1999/xlink" xmlns:svgjs="http://svgjs.dev/svgjs" width="1500" height="1500" viewBox="0 0 1500 1500"><g transform="matrix(1,0,0,1,-0.323615160350073,-0.3236151603499593)"><svg viewBox="0 0 343 343" data-background-color="#ffffff" preserveAspectRatio="xMidYMid meet" height="1500" width="1500" xmlns="http://www.w3.org/2000/svg" xmlns:xlink="http://www.w3.org/1999/xlink"><g id="tight-bounds" transform="matrix(1,0,0,1,0.0740000000000407,0.07400000000001228)"><svg viewBox="0 0 342.85155851775386 342.85155851775386" height="342.85155851775386" width="342.85155851775386"><g><svg></svg></g><g><svg viewBox="0 0 342.85155851775386 342.85155851775386" height="342.85155851775386" width="342.85155851775386"><g><path d="M0 171.426c0-94.676 76.75-171.426 171.426-171.426 94.676 0 171.426 76.75 171.426 171.426 0 94.676-76.75 171.426-171.426 171.426-94.676 0-171.426-76.75-171.426-171.426zM171.426 331.816c88.581 0 160.39-71.809 160.39-160.39 0-88.581-71.809-160.39-160.39-160.39-88.581 0-160.39 71.809-160.39 160.39 0 88.581 71.809 160.39 160.39 160.39z" data-fill-palette-color="tertiary" fill="#ff0033" stroke="transparent"></path><ellipse rx="164.56874808852186" ry="164.56874808852186" cx="171.42577925887693" cy="171.42577925887693" fill="#ff0033" stroke="transparent" stroke-width="0" fill-opacity="1" data-fill-palette-color="tertiary"></ellipse></g><g transform="matrix(1,0,0,1,64.84655864529837,110.23981374063628)"><svg viewBox="0 0 213.1584412271571 122.3719310364813" height="122.3719310364813" width="213.1584412271571"><g><svg viewBox="0 0 213.1584412271571 122.3719310364813" height="122.3719310364813" width="213.1584412271571"><g><svg viewBox="0 0 213.1584412271571 122.3719310364813" height="122.3719310364813" width="213.1584412271571"><g><svg viewBox="0 0 213.1584412271571 122.3719310364813" height="122.3719310364813" width="213.1584412271571"><g id="textblocktransform"><svg viewBox="0 0 213.1584412271571 122.3719310364813" height="122.3719310364813" width="213.1584412271571" id="textblock"><g><svg viewBox="0 0 213.1584412271571 122.3719310364813" height="122.3719310364813" width="213.1584412271571"><g transform="matrix(1,0,0,1,0,0)"><svg width="213.1584412271571" viewBox="2.75 -34.75 61.75 35.45" height="122.3719310364813" data-palette-color="#ffffff"><path d="M26.2-15.75L7.65-15.75 7.65-19.5 26.2-19.5 26.2-15.75ZM8.2 0.4L4.7 0.4Q4 0.4 3.58-0.2 3.15-0.8 2.95-1.75 2.75-2.7 2.75-3.65L2.75-3.65Q2.75-5.7 3-7.6 3.25-9.5 3.45-11.7L3.45-11.7 5.85-34.75 9.35-34.75Q10.65-34.75 11.08-33.77 11.5-32.8 11.5-31.45L11.5-31.45Q11.5-30.25 11.4-29.3 11.3-28.35 11.13-27 10.95-25.65 10.7-23.3L10.7-23.3 8.2 0.4ZM28.3 0.4L24.8 0.4Q24.1 0.4 23.68-0.2 23.25-0.8 23.05-1.75 22.85-2.7 22.85-3.65L22.85-3.65Q22.85-5.7 23.1-7.6 23.35-9.5 23.55-11.7L23.55-11.7 25.95-34.75 29.45-34.75Q30.75-34.75 31.18-33.77 31.6-32.8 31.6-31.45L31.6-31.45Q31.6-30.25 31.5-29.3 31.4-28.35 31.23-27 31.05-25.65 30.8-23.3L30.8-23.3 28.3 0.4ZM33.6 0.7L33.6 0.7Q32.25 0.7 32.25-0.15L32.25-0.15Q32.25-0.55 32.65-1.45L32.65-1.45 47.5-31.4Q47.85-32.15 48.95-32.9 50.05-33.65 51.6-34.18 53.15-34.7 54.8-34.7L54.8-34.7Q55.2-34.7 55.57-34.45 55.95-34.2 56.1-33.25L56.1-33.25Q56.95-27.5 58.15-21.7 59.35-15.9 60.9-10.35L60.9-10.35Q61.6-8 62.1-6.55 62.6-5.1 63.1-4.35L63.1-4.35Q63.65-3.6 64.07-3.13 64.5-2.65 64.5-2.2L64.5-2.2Q64.5-1.7 63.92-1.2 63.35-0.7 62.5-0.3 61.65 0.1 60.75 0.35 59.85 0.6 59.2 0.6L59.2 0.6Q58.1 0.6 56.95-1.38 55.8-3.35 54.7-8.5L54.7-8.5 50.35-29.35 51.3-29.95 41.55-9.45Q40.9-8.05 40.62-7.1 40.35-6.15 40.3-5.38 40.25-4.6 40.1-3.6L40.1-3.6Q40-2.65 39.15-1.88 38.3-1.1 37.17-0.53 36.05 0.05 35.05 0.38 34.05 0.7 33.6 0.7ZM58.5-9.5L39.9-9.5 39.9-13.25 58.5-13.25 58.5-9.5Z" opacity="1" transform="matrix(1,0,0,1,0,0)" fill="#ffffff" class="wordmark-text-0" data-fill-palette-color="quaternary" id="text-0"></path></svg></g></svg></g></svg></g></svg></g><g></g></svg></g></svg></g></svg></g></svg></g><defs></defs></svg><rect width="342.85155851775386" height="342.85155851775386" fill="none" stroke="none" visibility="hidden"></rect></g></svg></g></svg>